<?xml version="1.0" encoding="UTF-8" standalone="no"?>
<!-- Generator: Adobe Illustrator 18.0.0, SVG Export Plug-In . SVG Version: 6.00 Build 0)  -->

<svg
   xmlns:dc="http://purl.org/dc/elements/1.1/"
   xmlns:cc="http://creativecommons.org/ns#"
   xmlns:rdf="http://www.w3.org/1999/02/22-rdf-syntax-ns#"
   xmlns:svg="http://www.w3.org/2000/svg"
   xmlns="http://www.w3.org/2000/svg"
   xmlns:sodipodi="http://sodipodi.sourceforge.net/DTD/sodipodi-0.dtd"
   xmlns:inkscape="http://www.inkscape.org/namespaces/inkscape"
   version="1.1"
   id="Calque_1"
   x="0px"
   y="0px"
   viewBox="0 0 72 72"
   enable-background="new 0 0 72 72"
   xml:space="preserve"
   sodipodi:docname="fullscreen.svg"
   inkscape:version="0.92.1 unknown"><metadata
     id="metadata25"><rdf:RDF><cc:Work
         rdf:about=""><dc:format>image/svg+xml</dc:format><dc:type
           rdf:resource="http://purl.org/dc/dcmitype/StillImage" /></cc:Work></rdf:RDF></metadata><defs
     id="defs23" /><sodipodi:namedview
     pagecolor="#ffffff"
     bordercolor="#666666"
     borderopacity="1"
     objecttolerance="10"
     gridtolerance="10"
     guidetolerance="10"
     inkscape:pageopacity="0"
     inkscape:pageshadow="2"
     inkscape:window-width="847"
     inkscape:window-height="633"
     id="namedview21"
     showgrid="false"
     inkscape:zoom="6.5555556"
     inkscape:cx="36"
     inkscape:cy="34.714557"
     inkscape:window-x="235"
     inkscape:window-y="48"
     inkscape:window-maximized="0"
     inkscape:current-layer="Calque_1" /><g
     id="g10"
     style="fill:#ffffff"><polygon
       points="25.2,7.1 7.1,7.1 7.1,11.6 7.1,11.6 7.1,11.7 7.1,24.8 13.8,18.3 24.3,28.8 28.8,24.3 18.4,13.8"
       id="polygon2"
       style="fill:#ffffff" /><polygon
       points="47.2,7.1 53.7,13.8 43.2,24.3 47.7,28.8 58.2,18.4 64.9,25.2 64.9,7.1"
       id="polygon4"
       style="fill:#ffffff" /><polygon
       points="47.7,43.2 43.2,47.7 53.6,58.2 46.8,64.9 64.9,64.9 64.9,47.2 58.2,53.7"
       id="polygon6"
       style="fill:#ffffff" /><polygon
       points="24.3,43.2 13.8,53.6 7.1,46.8 7.1,60.3 7.1,60.4 7.1,60.4 7.1,64.9 24.8,64.9 18.3,58.2 28.8,47.7"
       id="polygon8"
       style="fill:#ffffff" /></g></svg>